Coordinates
version=1
nRows=7
nColumns=40
inDegrees=yes

Units are S.I. units (second, meters, Newtons, ...)
Angles are in degrees.

endheader
time	pelvis_tilt	pelvis_list	pelvis_rotation	pelvis_tx	pelvis_ty	pelvis_tz	hip_flexion_r	hip_adduction_r	hip_rotation_r	knee_angle_r	knee_angle_r_beta	ankle_angle_r	subtalar_angle_r	mtp_angle_r	hip_flexion_l	hip_adduction_l	hip_rotation_l	knee_angle_l	knee_angle_l_beta	ankle_angle_l	subtalar_angle_l	mtp_angle_l	lumbar_extension	lumbar_bending	lumbar_rotation	arm_flex_r	arm_add_r	arm_rot_r	elbow_flex_r	pro_sup_r	wrist_flex_r	wrist_dev_r	arm_flex_l	arm_add_l	arm_rot_l	elbow_flex_l	pro_sup_l	wrist_flex_l	wrist_dev_l
     51.32000000	     -4.70534551	     -3.68299351	      0.72292842	      0.81892020	      0.92972513	      0.42967275	     27.11423263	     -6.30787707	     -5.59638800	     66.39428632	     66.39428632	      1.95177274	    -17.09296489	      2.77935502	     16.86424483	     -3.05367303	     -5.07204548	     22.87589778	     22.87589778	     13.34895840	     -8.75495828	      1.31520246	     -9.58989051	      5.93426328	      2.19108040	     12.32668962	    -12.88339080	     -9.24577549	     33.11748280	     46.00656366	      0.00000000	      0.00000000	     15.49735845	    -14.19807617	     -4.62074978	     44.53638938	     46.04576037	      0.00000000	      0.00000000
     51.33335714	     -4.84876945	     -3.79808288	      0.48831156	      0.81751225	      0.93022101	      0.42961332	     28.47687745	     -6.12846606	     -5.86651246	     65.36683858	     65.36683858	      2.12728447	    -16.89098877	      2.74809561	     16.35467883	     -3.18598290	     -5.21947183	     22.46045158	     22.46045158	     13.57093255	     -8.73091761	      1.32457158	     -9.55411703	      6.13640161	      1.69037939	     10.38850198	    -12.63232170	     -9.15255544	     32.25344168	     46.02092537	      0.00000000	      0.00000000	     16.62307799	    -15.06782325	     -4.89877088	     45.09693232	     46.09270105	      0.00000000	      0.00000000
     51.34671429	     -4.92116005	     -3.82843275	      0.12584936	      0.81617618	      0.93090898	      0.42963316	     29.66491230	     -5.91342446	     -5.93968239	     64.09390975	     64.09390975	      2.14652451	    -16.76819652	      2.55469730	     15.55440899	     -3.23793851	     -5.57233530	     21.67652248	     21.67652248	     13.69592390	     -8.49555662	      1.28832551	     -9.64459107	      6.19314883	      2.47492014	      7.92907647	    -12.96229564	     -8.78055972	     30.49857917	     46.05309510	      0.00000000	      0.00000000	     18.19999935	    -14.96843067	     -5.31475904	     46.76012319	     46.17466519	      0.00000000	      0.00000000
     51.36007143	     -5.00080877	     -3.93106473	     -0.15392527	      0.81483591	      0.93141434	      0.42973047	     30.70647021	     -5.64644780	     -6.14131276	     62.56803271	     62.56803271	      2.17452002	    -16.54601845	      2.40788012	     14.87923228	     -3.37181057	     -5.85748115	     21.07455524	     21.07455524	     13.84380619	     -8.25463879	      1.11469216	     -9.72157704	      6.37048112	      2.53381791	      5.82568383	    -12.96433842	     -8.44256275	     29.20312178	     46.06990051	      0.00000000	      0.00000000	     19.40968839	    -15.37448043	     -5.77748102	     48.05397375	     46.25278014	      0.00000000	      0.00000000
     51.37342857	     -5.05367613	     -4.01507278	     -0.43989956	      0.81354340	      0.93185809	      0.42993409	     31.58820072	     -5.36271825	     -6.29703022	     60.75798391	     60.75798391	      2.17135794	    -16.23390979	      2.30347279	     14.19515731	     -3.49357151	     -6.15927448	     20.51290507	     20.51290507	     13.98818347	     -8.01152467	      0.87463064	     -9.82373497	      6.51775576	      2.54969741	      3.81419553	    -12.95086525	     -8.11948835	     28.03031067	     46.08340741	      0.00000000	      0.00000000	     20.52675544	    -15.81293798	     -6.28298270	     49.41454400	     46.33354805	      0.00000000	      0.00000000
     51.38678571	     -5.10752440	     -4.08258462	     -0.70594829	      0.81228518	      0.93218225	      0.43035053	     32.31736478	     -5.09235472	     -6.49864736	     58.63287295	     58.63287295	      2.19773030	    -15.87907317	      2.12905227	     13.52582323	     -3.61148014	     -6.48858071	     19.95702630	     19.95702630	     14.09198306	     -7.74753638	      0.54135812	     -9.93177823	      6.62939434	      2.55266178	      1.84276754	    -12.89098566	     -7.78665635	     26.96684609	     46.09290323	      0.00000000	      0.00000000	     21.51105875	    -16.28267026	     -6.87998715	     50.95515231	     46.42372717	      0.00000000	      0.00000000
     51.40014286	     -5.17177299	     -4.15442261	     -0.97417140	      0.81105430	      0.93240600	      0.43088192	     32.90500753	     -4.79817599	     -6.68675502	     56.17029826	     56.17029826	      2.24492351	    -15.36973127	      1.98828725	     12.87193249	     -3.72554676	     -6.77950931	     19.40556837	     19.40556837	     14.22177706	     -7.52805202	      0.26051302	    -10.02614653	      6.75689807	      2.42619617	     -0.03565913	    -12.82818943	     -7.58121447	     26.14475970	     46.10159423	      0.00000000	      0.00000000	     22.38397784	    -16.80687590	     -7.41627511	     52.35604261	     46.50225035	      0.00000000	      0.00000000
